<?xml version="1.0" encoding="UTF-8" standalone="no"?>
<!-- Created with Inkscape (http://www.inkscape.org/) -->

<svg
   width="80mm"
   height="80mm"
   viewBox="0 0 79.999999 80"
   version="1.1"
   id="svg1"
   xml:space="preserve"
   sodipodi:docname="final with slogan.svg"
   inkscape:version="1.3.2 (091e20e, 2023-11-25)"
   inkscape:export-filename="../../cardpresso.svg"
   inkscape:export-xdpi="96"
   inkscape:export-ydpi="96"
   xmlns:inkscape="http://www.inkscape.org/namespaces/inkscape"
   xmlns:sodipodi="http://sodipodi.sourceforge.net/DTD/sodipodi-0.dtd"
   xmlns:xlink="http://www.w3.org/1999/xlink"
   xmlns="http://www.w3.org/2000/svg"
   xmlns:svg="http://www.w3.org/2000/svg"><sodipodi:namedview
     id="namedview1"
     pagecolor="#ffffff"
     bordercolor="#000000"
     borderopacity="0.25"
     inkscape:showpageshadow="2"
     inkscape:pageopacity="0.0"
     inkscape:pagecheckerboard="0"
     inkscape:deskcolor="#d1d1d1"
     inkscape:document-units="mm"
     inkscape:zoom="1.249184"
     inkscape:cx="161.3053"
     inkscape:cy="195.32751"
     inkscape:window-width="1104"
     inkscape:window-height="785"
     inkscape:window-x="171"
     inkscape:window-y="25"
     inkscape:window-maximized="0"
     inkscape:current-layer="layer1" /><defs
     id="defs1"><linearGradient
       id="linearGradient2"><stop
         style="stop-color:#000000;stop-opacity:1;"
         offset="0"
         id="stop1" /><stop
         style="stop-color:#ffffff;stop-opacity:0;"
         offset="1"
         id="stop2" /></linearGradient><linearGradient
       id="linearGradient19"><stop
         style="stop-color:#ffffff;stop-opacity:1;"
         offset="0"
         id="stop19" /><stop
         style="stop-color:#ffffff;stop-opacity:0;"
         offset="1"
         id="stop20" /></linearGradient><linearGradient
       xlink:href="#linearGradient19"
       id="linearGradient521"
       gradientUnits="userSpaceOnUse"
       gradientTransform="translate(0.01094338,3.380482)"
       x1="87.210289"
       y1="132.29137"
       x2="177.37305"
       y2="132.29137" /><linearGradient
       xlink:href="#linearGradient19"
       id="linearGradient522"
       gradientUnits="userSpaceOnUse"
       gradientTransform="translate(-0.84098665,3.380482)"
       x1="87.210289"
       y1="132.29137"
       x2="177.37305"
       y2="132.29137" /><linearGradient
       xlink:href="#linearGradient19"
       id="linearGradient523"
       gradientUnits="userSpaceOnUse"
       gradientTransform="matrix(1.0107738,0,0,1.0107738,-0.89837966,-1.4918468)"
       x1="87.210289"
       y1="132.29137"
       x2="177.37305"
       y2="132.29137" /><linearGradient
       xlink:href="#linearGradient19"
       id="linearGradient524"
       gradientUnits="userSpaceOnUse"
       gradientTransform="matrix(1,0,0,0.90980545,0,15.39988)"
       x1="87.210289"
       y1="132.29137"
       x2="177.37305"
       y2="132.29137" /><linearGradient
       xlink:href="#linearGradient19"
       id="linearGradient525"
       gradientUnits="userSpaceOnUse"
       x1="87.210289"
       y1="132.29137"
       x2="177.37305"
       y2="132.29137" /><linearGradient
       xlink:href="#linearGradient19"
       id="linearGradient526"
       gradientUnits="userSpaceOnUse"
       x1="87.210289"
       y1="132.29137"
       x2="177.37305"
       y2="132.29137" /><linearGradient
       xlink:href="#linearGradient19"
       id="linearGradient527"
       gradientUnits="userSpaceOnUse"
       gradientTransform="translate(309.38919,-132.97848)"
       x1="87.210289"
       y1="132.29137"
       x2="177.37305"
       y2="132.29137" /><linearGradient
       xlink:href="#linearGradient19"
       id="linearGradient528"
       gradientUnits="userSpaceOnUse"
       gradientTransform="translate(310.15048,-132.97793)"
       x1="87.210289"
       y1="132.29137"
       x2="177.37305"
       y2="132.29137" /><linearGradient
       xlink:href="#linearGradient19"
       id="linearGradient529"
       gradientUnits="userSpaceOnUse"
       gradientTransform="matrix(1,0,0,1.0186719,308.63047,-135.37709)"
       x1="87.210289"
       y1="132.29137"
       x2="177.37305"
       y2="132.29137" /><linearGradient
       xlink:href="#linearGradient2"
       id="linearGradient530"
       gradientUnits="userSpaceOnUse"
       gradientTransform="matrix(1.0173614,0,0,1,321.91543,-189.70744)"
       x1="87.210289"
       y1="132.29137"
       x2="177.37305"
       y2="132.29137" /></defs><g
     id="layer1"
     transform="matrix(2.0534944,0,0,2.0531083,-51.288389,-19.132905)"
     style="stroke-width:0.487021"
     inkscape:export-filename="../../logo.jpg"
     inkscape:export-xdpi="96"
     inkscape:export-ydpi="96"><g
       id="g521"
       transform="matrix(0.1834449,0,0,0.18394779,-36.570678,28.456821)"
       style="stroke-width:2.65124"
       inkscape:export-filename="../../Logowithslogan.pdf"
       inkscape:export-xdpi="96"
       inkscape:export-ydpi="96"><g
         id="g517"
         style="mix-blend-mode:darken;fill:#000000;fill-opacity:1;fill-rule:nonzero;stroke:url(#linearGradient526);stroke-width:0;stroke-linejoin:bevel;stroke-dasharray:none"
         transform="translate(310.15042,-132.19274)"><path
           id="path513"
           style="font-size:11.9448px;font-family:Chalkboard;-inkscape-font-specification:'Chalkboard, Normal';letter-spacing:0.121936px;fill:#000000;fill-opacity:1;fill-rule:nonzero;stroke:#010a00;stroke-width:1.85586;stroke-linecap:round;stroke-linejoin:bevel;stroke-dasharray:none;stroke-opacity:1"
           d="m 157.70682,150.13006 c -0.27801,0 -0.5256,0.0988 -0.74403,0.29735 -0.21843,0.19858 -0.37763,0.49613 -0.47693,0.89326 v 18.13938 c 0.0595,0.43684 0.20828,0.75417 0.44663,0.95275 0.23825,0.21844 0.49632,0.32768 0.77433,0.32768 0.29785,0 0.56636,-0.11876 0.80464,-0.35684 0.25811,-0.21844 0.39644,-0.55669 0.4163,-1.01338 v -6.28434 c 0.27799,0.0397 0.54651,0.07 0.80464,0.0898 0.278,0.0204 0.55581,0.0291 0.8338,0.0291 1.1715,0 2.19444,-0.15818 3.06811,-0.47579 0.89353,-0.33756 1.63748,-0.79439 2.23319,-1.37022 0.59567,-0.57583 1.04321,-1.26166 1.34106,-2.05593 0.31769,-0.79423 0.47579,-1.66721 0.47579,-2.62032 0,-0.87367 -0.13827,-1.68853 -0.41633,-2.44307 -0.27799,-0.77438 -0.66507,-1.44859 -1.16148,-2.02442 -0.49639,-0.57582 -1.08225,-1.03266 -1.75738,-1.37022 -0.65524,-0.33755 -1.37015,-0.50609 -2.14453,-0.50609 -0.55599,0 -1.13253,0.0988 -1.72822,0.29735 -0.57584,0.17873 -1.09196,0.46699 -1.54865,0.86411 v -0.2682 c -0.0992,-0.37726 -0.26782,-0.6551 -0.50609,-0.8338 -0.21845,-0.17873 -0.45673,-0.26821 -0.71485,-0.26821 z m 4.61676,2.59117 c 0.43683,0 0.83439,0.12907 1.19178,0.38715 0.35741,0.23827 0.66428,0.5556 0.92243,0.95274 0.27797,0.39712 0.48723,0.84466 0.62624,1.34108 0.15885,0.47653 0.23789,0.95313 0.23789,1.42968 0,0.63539 -0.11848,1.20032 -0.35684,1.69674 -0.23828,0.49639 -0.57656,0.91371 -1.01339,1.25127 -0.41698,0.33756 -0.91335,0.59562 -1.48917,0.77431 -0.57584,0.17873 -1.20122,0.26823 -1.87632,0.26823 -0.27799,0 -0.5558,-0.0203 -0.8338,-0.0595 -0.25813,-0.0397 -0.52665,-0.0896 -0.80464,-0.14917 v -5.629 c 0.0397,-0.0397 0.0896,-0.0792 0.14915,-0.11889 0.0595,-0.0597 0.10942,-0.1189 0.14917,-0.17851 0.17872,-0.23828 0.37749,-0.46728 0.59592,-0.68569 0.21843,-0.23828 0.45671,-0.44637 0.71485,-0.62505 0.25811,-0.19858 0.53595,-0.35781 0.83377,-0.47696 0.29785,-0.11917 0.61519,-0.17849 0.95275,-0.17849 z" /><path
           id="path514"
           style="font-size:11.9448px;font-family:Chalkboard;-inkscape-font-specification:'Chalkboard, Normal';letter-spacing:0.121936px;fill:#000000;fill-opacity:1;fill-rule:nonzero;stroke:#010a00;stroke-width:1.85586;stroke-linecap:round;stroke-linejoin:bevel;stroke-dasharray:none;stroke-opacity:1"
           d="m 145.66986,150.249 c -0.41699,0 -0.8436,0.0499 -1.28044,0.14917 -0.41698,0.0794 -0.81453,0.18866 -1.19179,0.32768 -0.35743,0.11917 -0.62477,0.23769 -0.80347,0.35684 -0.25815,0.15887 -0.51619,0.3274 -0.77432,0.50612 -0.23827,0.17872 -0.48702,0.35772 -0.74516,0.53642 -0.3574,0.25814 -0.67475,0.56617 -0.95275,0.92359 -0.27799,0.33755 -0.52677,0.70489 -0.74516,1.10201 -0.15887,0.27796 -0.31694,0.54533 -0.47579,0.80347 -0.15887,0.25813 -0.28902,0.52665 -0.38832,0.80464 -0.23827,0.61554 -0.40682,1.2607 -0.50611,1.93581 -0.0992,0.67511 -0.10858,1.34 -0.0291,1.99526 0.0992,0.63539 0.29806,1.241 0.59591,1.81686 0.31769,0.57584 0.76407,1.07219 1.3399,1.48916 0.69497,0.49639 1.42961,0.75562 2.20399,0.77547 0.7744,0.0204 1.55904,0.008 2.35328,-0.0302 0.45669,-0.0204 0.91353,-0.16857 1.37022,-0.44663 0.4567,-0.29785 0.88331,-0.6152 1.28044,-0.95275 0.11917,0.21844 0.25748,0.43577 0.41631,0.65422 0.15886,0.19858 0.32856,0.38803 0.50728,0.56672 0.3177,0.15887 0.60483,0.21822 0.86294,0.17851 0.27801,-0.0397 0.49655,-0.13855 0.65536,-0.29738 0.17874,-0.13896 0.29844,-0.32846 0.35801,-0.56674 0.0595,-0.23827 0.0294,-0.49633 -0.0898,-0.77434 0.0204,0 0.0302,-0.008 0.0302,-0.0291 0,-0.0595 -0.0605,-0.18865 -0.17963,-0.38717 -0.11917,-0.19858 -0.25746,-0.41712 -0.4163,-0.65537 -0.13897,-0.23829 -0.27846,-0.47657 -0.41747,-0.71485 -0.11918,-0.25814 -0.18888,-0.47667 -0.20874,-0.65537 -0.19859,-1.35023 -0.28691,-2.71026 -0.26705,-4.08034 0.0204,-1.37009 0.0291,-2.73011 0.0291,-4.08035 -0.13897,-0.39712 -0.34708,-0.68541 -0.62507,-0.8641 -0.25813,-0.17873 -0.52665,-0.24845 -0.80464,-0.20874 -0.29784,-0.11918 -0.66516,-0.1785 -1.10201,-0.1785 z m 0.0595,2.41275 c -0.0204,1.07223 -0.0397,2.25326 -0.0595,3.54392 0,1.27079 0.12907,2.50178 0.38716,3.69317 -0.0397,0.0204 -0.0689,0.0394 -0.0886,0.0594 -0.0203,0.0204 -0.05,0.0397 -0.0898,0.0595 -0.27797,0.23827 -0.56626,0.4568 -0.86412,0.65536 -0.27798,0.19859 -0.56509,0.39735 -0.86294,0.59591 -0.3177,0.0992 -0.6362,0.13883 -0.95391,0.11889 -0.3177,-0.0203 -0.64548,-0.0291 -0.98305,-0.0291 -0.17872,-0.0595 -0.35656,-0.11889 -0.53527,-0.17851 -0.17873,-0.0595 -0.3577,-0.12935 -0.53642,-0.20873 -0.11918,-0.0992 -0.23884,-0.20852 -0.358,-0.32769 -0.0992,-0.11918 -0.19812,-0.22838 -0.29738,-0.32768 -0.0397,-0.15887 -0.0896,-0.31809 -0.14915,-0.47696 -0.0595,-0.15886 -0.1083,-0.31692 -0.14804,-0.47579 0,-0.61554 0.0686,-1.22115 0.20761,-1.81683 0.13897,-0.61557 0.33774,-1.19213 0.5959,-1.72823 0.27797,-0.556 0.62554,-1.05235 1.04253,-1.48918 0.41697,-0.45669 0.92381,-0.824 1.51949,-1.102 0.0795,-0.0397 0.19791,-0.0896 0.35684,-0.14916 0.17873,-0.0595 0.36701,-0.11889 0.56558,-0.1785 0.21845,-0.0795 0.43694,-0.13882 0.65538,-0.17851 0.21843,-0.0397 0.41717,-0.0595 0.59589,-0.0595 z" /><g
           id="g516"
           style="fill:#000000;fill-opacity:1;fill-rule:nonzero;stroke:#010a00;stroke-width:3.97684;stroke-linejoin:bevel;stroke-dasharray:none;stroke-opacity:1"><path
             id="path515"
             style="-inkscape-font-specification:'Chalkboard, Normal';fill:#000000;fill-opacity:1;fill-rule:nonzero;stroke:#010a00;stroke-width:1.85586;stroke-linecap:round;stroke-linejoin:bevel;stroke-dasharray:none;stroke-opacity:1"
             d="m 172.28663,136.47546 -54.23262,0.0341 v 3.06235 l 54.59552,-0.0351 h 0.1 v -0.004 c 1.71623,-0.0777 2.97526,-0.26187 3.76405,-0.55449 0.88556,-0.29861 1.32891,-0.6221 1.32891,-0.97048 l 0.002,-0.003 c 0,-0.3733 -0.48379,-0.70908 -1.44987,-1.00769 -0.80934,-0.29571 -2.02691,-0.46488 -3.6431,-0.51108 v -0.0114 h -0.45114 c -0.005,-5e-5 -0.008,8e-5 -0.0129,0 z m -59.80889,0.10077 c -1.26573,0.0952 -2.24169,0.258 -2.88629,0.49713 -0.8856,0.29865 -1.32833,0.62206 -1.32833,0.97048 0,0.37325 0.48322,0.70905 1.4493,1.00769 0.65305,0.23859 1.5857,0.39087 2.76532,0.46664 z" /><path
             id="path516"
             style="-inkscape-font-specification:'Chalkboard, Normal';fill:#000000;fill-opacity:1;fill-rule:nonzero;stroke:#010a00;stroke-width:1.85586;stroke-linecap:round;stroke-linejoin:bevel;stroke-dasharray:none;stroke-opacity:1"
             d="m 130.93741,140.01164 -3.12849,0.002 c -0.006,0.07 -0.0156,0.13247 -0.0196,0.20545 h -0.014 l 5.2e-4,0.24543 c -7e-5,0.003 -4.6e-4,0.004 -5.2e-4,0.007 l 0.001,1.4523 h -0.001 l 0.0202,24.48614 v 0.0833 h 0.004 c 0.081,1.43143 0.27255,2.48177 0.57774,3.13969 0.31152,0.73863 0.64846,1.10769 1.01183,1.10769 0.3894,0 0.7396,-0.40299 1.0511,-1.20877 0.30842,-0.67504 0.48561,-1.6906 0.53381,-3.03861 h 0.0134 l -5.2e-4,-0.3766 c 4e-5,-0.004 4.6e-4,-0.007 5.2e-4,-0.01 l -0.007,-9.83847 h 0.007 l -0.0202,-15.99467 v -0.054 h -0.004 c -0.006,-0.0742 -0.018,-0.13676 -0.0258,-0.20781 z" /><text
             xml:space="preserve"
             style="font-style:normal;font-variant:normal;font-weight:bold;font-stretch:normal;font-size:11.2235px;font-family:Chalkboard;-inkscape-font-specification:'Chalkboard, Bold';font-variant-ligatures:normal;font-variant-caps:normal;font-variant-numeric:normal;font-variant-east-asian:normal;letter-spacing:1.06851px;fill:#020000;stroke:#000000;stroke-width:0;stroke-linecap:round;paint-order:stroke fill markers"
             x="38.9016"
             y="215.16441"
             id="text1"
             transform="scale(1.0012756,0.99872603)"><tspan
               sodipodi:role="line"
               id="tspan1"
               style="font-style:normal;font-variant:normal;font-weight:bold;font-stretch:normal;font-size:11.2235px;font-family:Chalkboard;-inkscape-font-specification:'Chalkboard, Bold';font-variant-ligatures:normal;font-variant-caps:normal;font-variant-numeric:normal;font-variant-east-asian:normal;stroke-width:0"
               x="38.9016"
               y="215.16441">One Tap, Infinite Possibilities</tspan></text></g></g><path
         id="path517"
         style="-inkscape-font-specification:'Chalkboard, Normal';mix-blend-mode:darken;fill:#000000;fill-opacity:1;fill-rule:nonzero;stroke:#010a00;stroke-width:1.85586;stroke-linecap:square;stroke-linejoin:bevel;stroke-dasharray:none;stroke-opacity:1"
         d="m 445.17045,-30.47493 c -0.17512,0.004 -0.35366,0.046 -0.53699,0.11304 -0.73338,0.16653 -1.19951,0.5672 -1.39951,1.20053 -2.33338,4.40009 -4.2846,8.91663 -5.85121,13.55002 -1.53342,4.60006 -2.84953,9.3175602 -3.94957,14.1509102 -0.1334,0.73333997 -0.0661,1.33353997 0.20039,1.80019997 0.2999,0.46668 0.66566,0.76672003 1.09899,0.90007003 0.46665,0.13339 0.95099,0.0835 1.45101,-0.15008 0.50003,-0.23341003 0.88379,-0.70088003 1.15047,-1.40089003 0.66668,-3.03338997 1.41618,-5.96708997 2.24957,-8.80052997 l 1.29934,-4.0496702 c 0.66671,-1.99999 1.38404,-3.98334 2.15073,-5.95002 0.80004,-1.9667 1.66676,-3.89977 2.60011,-5.7998 0.70002,0.90005 1.3169,1.84908 1.85022,2.84913 0.53336,1 1.06654,1.984 1.59986,2.95067 0.46665,0.96664 0.9161,1.93253 1.34945,2.8992 0.46667,0.96669 0.91747,1.95067 1.35082,2.95063 l 1.49965,4.0997702 c 0.5,1.50007 0.93268,3.01718 1.29936,4.55053 0.36668,1.5 0.64998,3.03388 0.84999,4.60060997 0.29991,0.56664 0.66711,0.96584 1.10044,1.19920003 0.43336,0.2334 0.86738,0.30026 1.30074,0.20039 0.43332,-0.0663 0.80041,-0.29985 1.1004,-0.69974003 0.29996,-0.40004 0.46613,-0.91646 0.49946,-1.54978 -0.16654,-1.43336997 -0.41652,-2.83466997 -0.74988,-4.20136997 -0.29992,-1.39998 -0.66702,-2.78179 -1.1004,-4.14843 l -1.4496,-4.0510802 c -0.2999,-0.76665 -0.61681,-1.53292 -0.95016,-2.29958 -0.29993,-0.76668 -0.63359,-1.53297 -1.00027,-2.29961 -0.96665,-2.16673 -2.03436,-4.30072 -3.20104,-6.40077 -1.16668,-2.10004 -2.61546,-3.98281 -4.3488,-5.64955 h -0.05 c 0,-0.0329 -0.0157,-0.05 -0.05,-0.05 -0.23315,-0.23341 -0.51667,-0.38407 -0.84995,-0.45075 -0.16654,-0.0499 -0.33839,-0.0708 -0.51337,-0.0626 z" /><path
         id="path518"
         style="-inkscape-font-specification:'Chalkboard, Normal';mix-blend-mode:darken;fill:#000000;fill-opacity:1;fill-rule:nonzero;stroke:#010a00;stroke-width:1.85586;stroke-linecap:square;stroke-linejoin:bevel;stroke-dasharray:none;stroke-opacity:1"
         d="m 475.29895,-31.253155 v 5.1e-4 c -1.41282,0 -2.82516,0.185451 -4.23798,0.555521 -1.41286,0.37023 -2.7586,0.84104 -4.03696,1.41284 -0.13478,-0.0671 -0.33599,-0.101291 -0.60513,-0.101291 -0.4709,0 -0.89192,0.16801 -1.26194,0.50488 -0.36986,0.30278 -0.63896,0.7907 -0.80719,1.463481 v 13.522689 l 0.0501,4.0860504 v 9.83970997 c 0.10092,0.74004 0.35326,1.27850003 0.75706,1.61489003 0.4036,0.37026 0.84062,0.555 1.31154,0.555 0.5046,0 0.95902,-0.2017 1.36271,-0.60564 0.4373,-0.37026 0.67283,-0.94195003 0.70642,-1.71566003 -0.0354,-1.27828997 -0.0506,-2.72452997 -0.0506,-4.33926997 v -4.33927 c 0.74004,0.10106 1.48052,0.18491 2.22053,0.25218 0.74011,0.0675 1.49699,0.10077 2.27066,0.10077 h 1.16014 c 0.43737,-0.0354 0.85826,-0.0667 1.26194,-0.10077 2.08559,-0.16834 3.93531,-0.75714 5.55005,-1.7663004 1.61465,-1.042809 2.97747,-2.4216 4.0876,-4.13721 1.04276,-1.64831 1.56373,-3.44818 1.56373,-5.399159 0,-1.00929 -0.15161,-2.01857 -0.45423,-3.02772 -0.26912,-1.00916 -0.65614,-1.95096 -1.16066,-2.825671 -0.50457,-0.908209 -1.12652,-1.732659 -1.86655,-2.472719 -0.74005,-0.74 -1.56449,-1.344971 -2.47272,-1.8159 -0.841,-0.47098 -1.71539,-0.79091 -2.62361,-0.95912 -0.87458,-0.20219 -1.78299,-0.30282 -2.7249,-0.30282 z m -0.0501,4.08812 c 1.24466,0 2.388,0.26898 3.4308,0.807181 1.21102,0.67282 2.1194,1.581159 2.72489,2.7249 0.63912,1.110069 0.95912,2.30449 0.95912,3.58273 0,0.87467 -0.16806,1.74897 -0.50488,2.62361 -0.33652,0.87463 -0.84079,1.68202 -1.5136,2.42208 -0.74006,0.773699 -1.59799,1.32857 -2.57349,1.66501 -0.94187,0.30277 -1.90087,0.53825 -2.87631,0.70642 -0.70642,0.10091 -1.4128,0.15141 -2.11925,0.15141 -0.74006,0 -1.46347,-0.0349 -2.16989,-0.0997 -0.70645,-0.101049 -1.41288,-0.23622 -2.11925,-0.4041 v -12.41217 c 0.97554,-0.47098 2.05195,-0.874899 3.22926,-1.21129 1.17742,-0.36989 2.35523,-0.55501 3.5326,-0.55501 z" /><path
         id="path519"
         style="mix-blend-mode:darken;fill:none;fill-opacity:1;fill-rule:nonzero;stroke:#010a00;stroke-width:2.65123;stroke-linecap:round;stroke-linejoin:bevel;stroke-dasharray:none;stroke-opacity:1"
         d="m 440.37833,-81.995446 -0.55759,2.777091 0.061,2.147156 -1.0759,0.54467 1.15858,1.454691 -3.72897,0.09043 -7.7835,4.052466 5.27823,2.122351 v 4.60437 l -0.9524,0.221692 h -0.13849 v 0.03152 l -13.69167,3.176034 7.87238,2.198315 v 3.296957 l -34.63819,9.420095 3.42511,0.88005 90.58207,-0.267167 2.3859,-0.612883 -34.63819,-9.420095 v -3.296957 l 7.87238,-2.198315 -13.69167,-3.176034 v -0.03152 h -0.13849 l -0.9524,-0.221692 v -4.60437 l 5.27823,-2.122351 -7.7835,-4.052466 -3.72897,-0.09043 1.15858,-1.454691 -1.0759,-0.54467 0.061,-2.147156 z" /><path
         id="path520"
         style="-inkscape-font-specification:'Chalkboard, Normal';mix-blend-mode:darken;fill:#000000;fill-opacity:1;fill-rule:nonzero;stroke:#010a00;stroke-width:1.85586;stroke-linecap:round;stroke-linejoin:bevel;stroke-dasharray:none;stroke-opacity:1"
         d="m 428.39153,-37.842063 -4.89634,0.0054 5.2e-4,0.267464 c -8e-5,0.0044 -9.3e-4,0.0074 -10e-4,0.01182 l 0.0599,69.67428 v 0.118676 h 0.008 c 0.12433,2.032572 0.41859,3.524193 0.88677,4.458337 0.47784,1.048814 0.99489,1.572905 1.55236,1.572905 0.59731,0 1.13494,-0.572236 1.61282,-1.71638 0.47311,-0.958526 0.74406,-2.400797 0.81804,-4.314862 h 0.0181 l -10e-4,-0.53493 c 1.3e-4,-0.0042 9.5e-4,-0.0074 10e-4,-0.0118 z" /><path
         id="path521"
         style="-inkscape-font-specification:'Chalkboard, Normal';mix-blend-mode:darken;fill:#000000;fill-opacity:1;fill-rule:nonzero;stroke:#010a00;stroke-width:1.85586;stroke-linecap:round;stroke-linejoin:bevel;stroke-dasharray:none;stroke-opacity:1"
         d="m 486.27128,-38.737748 c 0,-0.551658 -0.61973,-1.047868 -1.85771,-1.489189 -1.03713,-0.436972 -2.59743,-0.687349 -4.66853,-0.755662 v -0.01812 l -0.57839,6.83e-4 c -0.004,-6.9e-5 -0.008,-6.13e-4 -0.0141,-6.83e-4 l -75.38915,0.05534 h -0.12819 v 0.007 c -2.1993,0.114714 -3.81305,0.386612 -4.82382,0.819025 -1.13482,0.441322 -1.70245,0.919189 -1.70245,1.43409 0,0.551672 0.61973,1.047882 1.85773,1.489231 1.03712,0.436958 2.59746,0.687321 4.66854,0.755633 v 0.01812 l 0.57842,-6.69e-4 c 0.006,5.6e-5 0.008,6.28e-4 0.0142,6.69e-4 l 75.38914,-0.05533 h 0.12834 v -0.007 c 2.19926,-0.114853 3.81303,-0.386612 4.8238,-0.819026 1.13484,-0.44132 1.70243,-0.919215 1.70243,-1.434103 z" /></g></g></svg>
