<svg width="638" height="553" viewBox="0 0 638 553" fill="none" xmlns="http://www.w3.org/2000/svg">
<g filter="url(#filter0_f_2398_1225)">
<rect x="168.807" y="84.8715" width="376.088" height="209.277" transform="rotate(16.72 168.807 84.8715)" fill="url(#paint0_linear_2398_1225)"/>
</g>
<g filter="url(#filter1_d_2398_1225)">
<rect x="149.985" y="41.8971" width="436.721" height="276.268" rx="18.0962" transform="rotate(16.7205 149.985 41.8971)" fill="white"/>
</g>
<mask id="mask0_2398_1225" style="mask-type:alpha" maskUnits="userSpaceOnUse" x="74" y="46" width="490" height="382">
<rect x="149.985" y="41.8971" width="436.721" height="276.268" rx="18.0962" transform="rotate(16.7205 149.985 41.8971)" fill="white"/>
</mask>
<g mask="url(#mask0_2398_1225)">
<g opacity="0.18">
<line x1="147.948" y1="33.2422" x2="396.133" y2="406.341" stroke="#18181B" stroke-width="1.20641"/>
<line x1="141.476" y1="33.8176" x2="389.662" y2="406.916" stroke="#18181B" stroke-width="1.20641"/>
<line x1="135.005" y1="34.393" x2="383.19" y2="407.491" stroke="#18181B" stroke-width="1.20641"/>
<line x1="128.534" y1="34.9683" x2="376.72" y2="408.067" stroke="#18181B" stroke-width="1.20641"/>
<line x1="122.062" y1="35.5437" x2="370.248" y2="408.642" stroke="#18181B" stroke-width="1.20641"/>
<line x1="115.591" y1="36.119" x2="363.777" y2="409.217" stroke="#18181B" stroke-width="1.20641"/>
<line x1="109.119" y1="36.6944" x2="357.305" y2="409.793" stroke="#18181B" stroke-width="1.20641"/>
<line x1="102.649" y1="37.2697" x2="350.835" y2="410.368" stroke="#18181B" stroke-width="1.20641"/>
<line x1="96.1775" y1="37.8452" x2="344.363" y2="410.944" stroke="#18181B" stroke-width="1.20641"/>
<line x1="89.7063" y1="38.4205" x2="337.892" y2="411.519" stroke="#18181B" stroke-width="1.20641"/>
<line x1="83.2347" y1="38.9959" x2="331.42" y2="412.094" stroke="#18181B" stroke-width="1.20641"/>
<line x1="76.764" y1="39.5712" x2="324.95" y2="412.67" stroke="#18181B" stroke-width="1.20641"/>
<line x1="70.2928" y1="40.1466" x2="318.478" y2="413.245" stroke="#18181B" stroke-width="1.20641"/>
<line x1="63.8211" y1="40.7219" x2="312.007" y2="413.82" stroke="#18181B" stroke-width="1.20641"/>
<line x1="57.3499" y1="41.2973" x2="305.536" y2="414.396" stroke="#18181B" stroke-width="1.20641"/>
<line x1="50.8792" y1="41.8727" x2="299.065" y2="414.971" stroke="#18181B" stroke-width="1.20641"/>
<line x1="44.408" y1="42.4481" x2="292.594" y2="415.546" stroke="#18181B" stroke-width="1.20641"/>
<line x1="37.9363" y1="43.0234" x2="286.122" y2="416.122" stroke="#18181B" stroke-width="1.20641"/>
<line x1="31.4646" y1="43.5988" x2="279.65" y2="416.697" stroke="#18181B" stroke-width="1.20641"/>
<line x1="24.9944" y1="44.1742" x2="273.18" y2="417.273" stroke="#18181B" stroke-width="1.20641"/>
<line x1="18.5227" y1="44.7495" x2="266.708" y2="417.848" stroke="#18181B" stroke-width="1.20641"/>
<line x1="12.0516" y1="45.3249" x2="260.237" y2="418.423" stroke="#18181B" stroke-width="1.20641"/>
<line x1="5.57987" y1="45.9002" x2="253.766" y2="418.999" stroke="#18181B" stroke-width="1.20641"/>
<line x1="-0.890829" y1="46.4756" x2="247.295" y2="419.574" stroke="#18181B" stroke-width="1.20641"/>
<line x1="-7.36202" y1="47.051" x2="240.824" y2="420.149" stroke="#18181B" stroke-width="1.20641"/>
<line x1="-13.8337" y1="47.6264" x2="234.352" y2="420.725" stroke="#18181B" stroke-width="1.20641"/>
<line x1="-20.3049" y1="48.2017" x2="227.881" y2="421.3" stroke="#18181B" stroke-width="1.20641"/>
<line x1="-26.7746" y1="48.7771" x2="221.411" y2="421.875" stroke="#18181B" stroke-width="1.20641"/>
<line x1="-33.2458" y1="49.3524" x2="214.94" y2="422.451" stroke="#18181B" stroke-width="1.20641"/>
<line x1="-39.7185" y1="49.9278" x2="208.467" y2="423.026" stroke="#18181B" stroke-width="1.20641"/>
<line x1="-46.1877" y1="50.5031" x2="201.998" y2="423.602" stroke="#18181B" stroke-width="1.20641"/>
<line x1="155.227" y1="34.1693" x2="403.413" y2="407.268" stroke="#18181B" stroke-width="1.20641"/>
<line x1="162.506" y1="35.0965" x2="410.691" y2="408.195" stroke="#18181B" stroke-width="1.20641"/>
<line x1="169.785" y1="36.0236" x2="417.971" y2="409.122" stroke="#18181B" stroke-width="1.20641"/>
<line x1="177.065" y1="36.9507" x2="425.251" y2="410.049" stroke="#18181B" stroke-width="1.20641"/>
<line x1="184.345" y1="37.8779" x2="432.53" y2="410.976" stroke="#18181B" stroke-width="1.20641"/>
<line x1="191.624" y1="38.8049" x2="439.81" y2="411.903" stroke="#18181B" stroke-width="1.20641"/>
<line x1="198.904" y1="39.7321" x2="447.09" y2="412.831" stroke="#18181B" stroke-width="1.20641"/>
<line x1="206.183" y1="40.6592" x2="454.369" y2="413.758" stroke="#18181B" stroke-width="1.20641"/>
<line x1="213.462" y1="41.5864" x2="461.648" y2="414.685" stroke="#18181B" stroke-width="1.20641"/>
<line x1="220.742" y1="42.5135" x2="468.928" y2="415.612" stroke="#18181B" stroke-width="1.20641"/>
<line x1="228.022" y1="43.4406" x2="476.207" y2="416.539" stroke="#18181B" stroke-width="1.20641"/>
<line x1="235.302" y1="44.3678" x2="483.487" y2="417.466" stroke="#18181B" stroke-width="1.20641"/>
<line x1="242.581" y1="45.2949" x2="490.767" y2="418.393" stroke="#18181B" stroke-width="1.20641"/>
<line x1="249.86" y1="46.222" x2="498.045" y2="419.32" stroke="#18181B" stroke-width="1.20641"/>
<line x1="257.139" y1="47.1491" x2="505.325" y2="420.248" stroke="#18181B" stroke-width="1.20641"/>
<line x1="264.419" y1="48.0763" x2="512.604" y2="421.175" stroke="#18181B" stroke-width="1.20641"/>
<line x1="271.699" y1="49.0034" x2="519.884" y2="422.102" stroke="#18181B" stroke-width="1.20641"/>
<line x1="278.978" y1="49.9305" x2="527.164" y2="423.029" stroke="#18181B" stroke-width="1.20641"/>
<line x1="286.258" y1="50.8576" x2="534.444" y2="423.956" stroke="#18181B" stroke-width="1.20641"/>
<line x1="293.536" y1="51.7848" x2="541.722" y2="424.883" stroke="#18181B" stroke-width="1.20641"/>
<line x1="300.816" y1="52.7119" x2="549.002" y2="425.81" stroke="#18181B" stroke-width="1.20641"/>
<line x1="308.096" y1="53.6391" x2="556.282" y2="426.737" stroke="#18181B" stroke-width="1.20641"/>
<line x1="315.377" y1="54.5662" x2="563.562" y2="427.665" stroke="#18181B" stroke-width="1.20641"/>
</g>
<g filter="url(#filter2_f_2398_1225)">
<circle cx="156.327" cy="75.2944" r="108.577" transform="rotate(16.7205 156.327 75.2944)" fill="#D2D2D2"/>
</g>
<g filter="url(#filter3_f_2398_1225)">
<circle cx="479.638" cy="407.977" r="108.577" transform="rotate(16.7205 479.638 407.977)" fill="#C8C8C8"/>
</g>
<rect x="149.985" y="41.8971" width="436.721" height="276.268" rx="18.0962" transform="rotate(16.7205 149.985 41.8971)" fill="url(#paint1_linear_2398_1225)"/>
</g>
<path d="M116.523 261.436L119.368 251.968L122.901 253.029C123.545 253.222 124.077 253.512 124.497 253.896C124.928 254.275 125.216 254.731 125.361 255.264C125.508 255.789 125.486 256.369 125.295 257.004C125.107 257.631 124.801 258.126 124.378 258.489C123.966 258.845 123.479 259.068 122.916 259.158C122.354 259.248 121.75 259.196 121.106 259.002L119.302 258.46L118.252 261.955L116.523 261.436ZM119.76 256.935L121.59 257.485C121.903 257.579 122.192 257.601 122.457 257.551C122.724 257.493 122.954 257.373 123.147 257.191C123.34 257.008 123.48 256.773 123.567 256.485C123.656 256.189 123.669 255.915 123.605 255.665C123.544 255.407 123.417 255.184 123.224 254.997C123.034 254.801 122.782 254.656 122.468 254.562L120.638 254.012L119.76 256.935ZM130.538 265.813C129.844 265.604 129.232 265.286 128.705 264.86C128.177 264.433 127.755 263.932 127.438 263.357C127.121 262.781 126.925 262.159 126.849 261.49C126.784 260.814 126.856 260.129 127.064 259.434C127.276 258.731 127.593 258.12 128.017 257.6C128.441 257.081 128.944 256.669 129.525 256.363C130.107 256.057 130.734 255.876 131.407 255.82C132.082 255.755 132.771 255.828 133.475 256.039C134.178 256.25 134.793 256.569 135.321 256.996C135.849 257.422 136.271 257.923 136.588 258.498C136.907 259.065 137.1 259.682 137.168 260.349C137.244 261.019 137.176 261.705 136.965 262.408C136.756 263.103 136.435 263.713 136 264.238C135.567 264.755 135.06 265.166 134.479 265.472C133.898 265.778 133.269 265.963 132.594 266.028C131.927 266.096 131.242 266.024 130.538 265.813ZM131.012 264.237C131.478 264.377 131.93 264.425 132.368 264.381C132.809 264.328 133.218 264.197 133.595 263.987C133.981 263.78 134.311 263.496 134.585 263.135C134.869 262.776 135.081 262.36 135.224 261.885C135.366 261.411 135.417 260.95 135.376 260.504C135.345 260.051 135.226 259.632 135.019 259.247C134.823 258.855 134.554 258.52 134.212 258.242C133.871 257.964 133.467 257.755 133.001 257.615C132.544 257.478 132.096 257.431 131.658 257.475C131.219 257.519 130.806 257.648 130.418 257.864C130.041 258.074 129.711 258.359 129.428 258.717C129.147 259.067 128.935 259.479 128.793 259.953C128.65 260.428 128.599 260.893 128.637 261.348C128.676 261.803 128.795 262.222 128.994 262.605C129.202 262.991 129.475 263.327 129.814 263.613C130.155 263.891 130.554 264.099 131.012 264.237ZM138.233 267.958L141.078 258.489L142.425 258.894L145.528 267.475L144.787 267.405L146.937 260.249L148.665 260.769L145.821 270.237L144.461 269.829L141.449 261.22L142.127 261.271L139.962 268.477L138.233 267.958ZM152.223 272.161L155.068 262.692L158.601 263.753C159.245 263.947 159.777 264.236 160.197 264.621C160.628 265 160.916 265.456 161.061 265.989C161.208 266.513 161.186 267.094 160.996 267.729C160.807 268.356 160.502 268.851 160.079 269.213C159.667 269.57 159.179 269.793 158.617 269.883C158.054 269.972 157.451 269.92 156.807 269.727L155.002 269.185L153.952 272.68L152.223 272.161ZM155.46 267.66L157.29 268.209C157.604 268.304 157.893 268.326 158.157 268.276C158.424 268.217 158.654 268.097 158.847 267.915C159.041 267.733 159.181 267.498 159.267 267.21C159.356 266.913 159.369 266.64 159.306 266.39C159.245 266.131 159.118 265.909 158.924 265.721C158.734 265.525 158.482 265.38 158.168 265.286L156.338 264.736L155.46 267.66ZM166.239 276.537C165.544 276.328 164.933 276.011 164.405 275.584C163.877 275.158 163.455 274.657 163.138 274.081C162.821 273.506 162.625 272.883 162.549 272.214C162.484 271.539 162.556 270.854 162.765 270.159C162.976 269.455 163.293 268.844 163.717 268.325C164.141 267.806 164.644 267.393 165.225 267.087C165.807 266.782 166.434 266.601 167.107 266.544C167.782 266.479 168.471 266.552 169.175 266.764C169.878 266.975 170.493 267.294 171.021 267.72C171.549 268.146 171.971 268.647 172.288 269.223C172.607 269.79 172.801 270.407 172.868 271.074C172.944 271.743 172.877 272.43 172.665 273.133C172.457 273.828 172.135 274.438 171.7 274.963C171.268 275.48 170.761 275.891 170.179 276.197C169.598 276.502 168.969 276.688 168.294 276.753C167.627 276.82 166.942 276.748 166.239 276.537ZM166.712 274.961C167.178 275.101 167.63 275.149 168.068 275.105C168.509 275.053 168.918 274.922 169.295 274.712C169.681 274.504 170.011 274.22 170.286 273.859C170.569 273.501 170.782 273.084 170.924 272.61C171.067 272.135 171.117 271.675 171.076 271.228C171.046 270.776 170.927 270.357 170.719 269.971C170.523 269.579 170.254 269.245 169.912 268.967C169.571 268.689 169.167 268.479 168.701 268.339C168.244 268.202 167.796 268.155 167.358 268.199C166.92 268.243 166.507 268.373 166.118 268.589C165.741 268.799 165.411 269.083 165.128 269.441C164.847 269.791 164.636 270.204 164.493 270.678C164.351 271.152 164.299 271.617 164.338 272.072C164.376 272.527 164.495 272.946 164.694 273.33C164.902 273.715 165.175 274.051 165.514 274.338C165.855 274.616 166.255 274.824 166.712 274.961ZM173.934 278.682L176.778 269.214L178.125 269.619L181.228 278.2L180.487 278.129L182.637 270.974L184.365 271.493L181.521 280.962L180.161 280.553L177.149 271.944L177.827 271.995L175.662 279.202L173.934 278.682Z" fill="#18181B"/>
<path opacity="0.5" d="M109.582 284.544L112.426 275.076L118.743 276.973L118.285 278.498L113.697 277.12L112.91 279.738L116.926 280.945L116.468 282.47L112.452 281.263L111.31 285.063L109.582 284.544ZM122.679 288.645C121.984 288.436 121.373 288.119 120.845 287.692C120.317 287.266 119.895 286.765 119.578 286.189C119.261 285.614 119.065 284.991 118.989 284.322C118.924 283.646 118.996 282.961 119.205 282.266C119.416 281.563 119.733 280.952 120.157 280.433C120.581 279.913 121.084 279.501 121.665 279.195C122.247 278.889 122.874 278.708 123.547 278.652C124.222 278.587 124.911 278.66 125.615 278.871C126.318 279.083 126.933 279.401 127.461 279.828C127.989 280.254 128.411 280.755 128.728 281.331C129.047 281.898 129.241 282.515 129.308 283.182C129.384 283.851 129.317 284.537 129.105 285.241C128.897 285.935 128.575 286.545 128.14 287.071C127.707 287.587 127.201 287.999 126.619 288.304C126.038 288.61 125.409 288.795 124.734 288.86C124.067 288.928 123.382 288.856 122.679 288.645ZM123.152 287.069C123.618 287.209 124.07 287.257 124.508 287.213C124.949 287.161 125.358 287.029 125.735 286.819C126.121 286.612 126.451 286.328 126.725 285.967C127.009 285.609 127.222 285.192 127.364 284.718C127.507 284.243 127.557 283.783 127.516 283.336C127.485 282.883 127.367 282.464 127.159 282.079C126.963 281.687 126.694 281.352 126.352 281.074C126.011 280.796 125.607 280.587 125.141 280.447C124.684 280.31 124.236 280.263 123.798 280.307C123.36 280.351 122.946 280.481 122.558 280.697C122.181 280.907 121.851 281.191 121.568 281.549C121.287 281.899 121.076 282.311 120.933 282.786C120.791 283.26 120.739 283.725 120.777 284.18C120.816 284.635 120.935 285.054 121.134 285.437C121.342 285.823 121.615 286.159 121.954 286.446C122.295 286.724 122.695 286.931 123.152 287.069ZM133.975 292.038C133.247 291.819 132.644 291.472 132.168 290.997C131.701 290.524 131.386 289.972 131.224 289.341C131.063 288.711 131.084 288.057 131.287 287.379L133.116 281.291L134.845 281.81L133.043 287.809C132.926 288.199 132.905 288.576 132.98 288.94C133.064 289.307 133.231 289.626 133.483 289.895C133.737 290.156 134.059 290.345 134.449 290.462C134.847 290.582 135.22 290.602 135.567 290.521C135.926 290.435 136.237 290.261 136.5 289.998C136.773 289.738 136.967 289.413 137.084 289.023L138.886 283.024L140.615 283.544L138.786 289.631C138.582 290.309 138.239 290.867 137.757 291.304C137.275 291.741 136.704 292.027 136.045 292.161C135.394 292.298 134.704 292.257 133.975 292.038ZM140.651 293.878L143.496 284.409L144.843 284.814L147.946 293.395L147.205 293.325L149.355 286.169L151.083 286.688L148.239 296.157L146.879 295.748L143.867 287.14L144.545 287.191L142.38 294.397L140.651 293.878ZM151.227 297.055L154.072 287.586L157.16 288.514C158.16 288.814 158.967 289.278 159.582 289.907C160.208 290.529 160.618 291.257 160.81 292.091C161.006 292.916 160.964 293.795 160.684 294.727C160.406 295.651 159.956 296.411 159.333 297.009C158.712 297.599 157.968 297.985 157.1 298.168C156.244 298.345 155.315 298.283 154.316 297.982L151.227 297.055ZM153.414 296.049L154.812 296.469C155.456 296.662 156.05 296.698 156.595 296.575C157.151 296.446 157.632 296.184 158.037 295.789C158.445 295.385 158.746 294.856 158.942 294.204C159.141 293.543 159.18 292.936 159.06 292.383C158.94 291.829 158.682 291.35 158.287 290.945C157.899 290.542 157.384 290.244 156.74 290.05L155.342 289.631L153.414 296.049ZM161.791 300.228L164.635 290.759L170.926 292.649L170.468 294.174L165.905 292.804L165.176 295.231L169.485 296.526L169.026 298.051L164.718 296.756L163.977 299.222L168.54 300.593L168.082 302.118L161.791 300.228ZM170.505 302.846L173.349 293.377L176.87 294.435C177.513 294.628 178.046 294.917 178.466 295.302C178.897 295.681 179.185 296.137 179.33 296.67C179.477 297.195 179.455 297.775 179.264 298.41C179.068 299.063 178.745 299.571 178.294 299.934C177.851 300.3 177.334 300.514 176.743 300.577L177.774 305.03L175.817 304.442L174.74 299.587L175.66 300.584L173.283 299.87L172.233 303.365L170.505 302.846ZM173.741 298.345L175.559 298.891C175.872 298.985 176.161 299.007 176.426 298.957C176.692 298.899 176.923 298.778 177.116 298.596C177.309 298.414 177.449 298.179 177.536 297.891C177.625 297.595 177.637 297.321 177.574 297.071C177.513 296.813 177.386 296.59 177.193 296.402C177.002 296.207 176.75 296.062 176.437 295.968L174.619 295.422L173.741 298.345ZM185.155 307.247L187.541 299.303L185.088 298.566L185.546 297.041L192.155 299.027L191.697 300.552L189.282 299.826L186.896 307.77L185.155 307.247ZM190.113 308.736L196.223 300.249L198.46 300.921L198.882 311.37L197.001 310.805L196.938 308.569L193.278 307.47L191.981 309.297L190.113 308.736ZM194.232 306.094L196.901 306.895L196.741 301.707L197.224 301.852L194.232 306.094ZM201.091 312.034L203.936 302.566L207.469 303.627C208.113 303.82 208.645 304.11 209.065 304.494C209.496 304.873 209.784 305.329 209.929 305.862C210.076 306.387 210.054 306.967 209.863 307.602C209.675 308.229 209.369 308.724 208.946 309.087C208.534 309.443 208.047 309.666 207.484 309.756C206.922 309.846 206.318 309.794 205.674 309.6L203.87 309.058L202.82 312.553L201.091 312.034ZM204.328 307.533L206.158 308.083C206.471 308.177 206.76 308.199 207.025 308.149C207.292 308.091 207.522 307.971 207.715 307.789C207.908 307.606 208.048 307.371 208.135 307.083C208.224 306.787 208.237 306.513 208.173 306.263C208.112 306.005 207.985 305.782 207.792 305.595C207.602 305.399 207.35 305.254 207.036 305.16L205.206 304.61L204.328 307.533ZM215.58 316.387L217.966 308.443L215.513 307.706L215.971 306.181L222.58 308.166L222.122 309.692L219.707 308.966L217.321 316.91L215.58 316.387ZM220.538 317.876L226.649 309.389L228.885 310.061L229.307 320.51L227.426 319.945L227.364 317.709L223.703 316.61L222.406 318.437L220.538 317.876ZM224.657 315.234L227.326 316.035L227.167 310.847L227.65 310.992L224.657 315.234ZM231.517 321.174L234.361 311.705L237.894 312.767C238.538 312.96 239.07 313.249 239.49 313.634C239.921 314.013 240.209 314.469 240.354 315.002C240.501 315.527 240.48 316.107 240.289 316.742C240.1 317.369 239.795 317.864 239.372 318.227C238.96 318.583 238.472 318.806 237.91 318.896C237.347 318.986 236.744 318.934 236.1 318.74L234.295 318.198L233.245 321.693L231.517 321.174ZM234.753 316.673L236.583 317.223C236.897 317.317 237.186 317.339 237.45 317.289C237.717 317.231 237.947 317.111 238.14 316.928C238.334 316.746 238.474 316.511 238.56 316.223C238.649 315.927 238.662 315.653 238.599 315.403C238.538 315.145 238.411 314.922 238.218 314.735C238.027 314.539 237.775 314.394 237.461 314.3L235.631 313.75L234.753 316.673Z" fill="#18181B"/>
<g filter="url(#filter4_d_2398_1225)">
<g style="mix-blend-mode:darken">
<path d="M319.877 242.715C319.707 242.664 319.539 242.675 319.37 242.749C319.202 242.823 319.053 242.966 318.924 243.176L315.785 253.626C315.746 253.888 315.782 254.098 315.893 254.257C316.001 254.426 316.141 254.537 316.311 254.588C316.493 254.643 316.678 254.624 316.865 254.53C317.061 254.452 317.204 254.282 317.295 254.023L318.383 250.403C318.546 250.477 318.705 250.544 318.86 250.602C319.027 250.665 319.195 250.721 319.366 250.773C320.083 250.988 320.736 251.085 321.326 251.063C321.932 251.033 322.466 250.906 322.931 250.684C323.395 250.462 323.788 250.149 324.108 249.746C324.439 249.347 324.687 248.874 324.852 248.324C325.003 247.821 325.06 247.326 325.02 246.84C324.984 246.343 324.864 245.884 324.659 245.461C324.455 245.038 324.175 244.667 323.821 244.348C323.478 244.033 323.069 243.805 322.595 243.662C322.255 243.56 321.885 243.511 321.486 243.516C321.102 243.513 320.736 243.584 320.388 243.729L320.434 243.574C320.439 243.338 320.384 243.147 320.269 243.001C320.166 242.858 320.035 242.762 319.877 242.715ZM322.256 245.057C322.523 245.137 322.744 245.284 322.918 245.499C323.096 245.702 323.229 245.941 323.318 246.217C323.42 246.497 323.47 246.793 323.47 247.105C323.484 247.409 323.45 247.698 323.368 247.972C323.258 248.338 323.088 248.642 322.856 248.884C322.624 249.126 322.345 249.304 322.019 249.419C321.705 249.536 321.356 249.594 320.973 249.591C320.589 249.588 320.191 249.524 319.778 249.4C319.608 249.349 319.441 249.286 319.278 249.213C319.126 249.142 318.971 249.064 318.811 248.979L319.785 245.736C319.816 245.72 319.853 245.707 319.897 245.695C319.943 245.671 319.984 245.646 320.019 245.619C320.17 245.515 320.331 245.42 320.502 245.334C320.677 245.237 320.859 245.161 321.048 245.105C321.241 245.039 321.438 244.998 321.641 244.984C321.844 244.97 322.049 244.994 322.256 245.057Z" fill="black"/>
<path d="M314.207 241.086C313.951 241.009 313.681 240.96 313.397 240.936C313.128 240.905 312.865 240.895 312.61 240.906C312.371 240.909 312.187 240.928 312.057 240.964C311.871 241.008 311.684 241.057 311.495 241.113C311.318 241.172 311.135 241.229 310.946 241.285C310.683 241.368 310.435 241.487 310.203 241.642C309.974 241.785 309.758 241.951 309.556 242.14C309.411 242.27 309.268 242.395 309.126 242.515C308.984 242.634 308.857 242.765 308.749 242.907C308.496 243.218 308.281 243.558 308.104 243.929C307.926 244.3 307.805 244.681 307.741 245.073C307.691 245.457 307.708 245.843 307.791 246.229C307.886 246.62 308.073 246.988 308.354 247.334C308.693 247.747 309.098 248.032 309.569 248.186C310.04 248.34 310.522 248.477 311.015 248.601C311.298 248.673 311.603 248.672 311.931 248.596C312.262 248.508 312.578 248.404 312.88 248.283C312.915 248.43 312.962 248.581 313.022 248.736C313.085 248.88 313.156 249.02 313.234 249.156C313.401 249.306 313.567 249.393 313.732 249.417C313.909 249.446 314.06 249.429 314.184 249.366C314.318 249.319 314.424 249.232 314.502 249.106C314.579 248.98 314.606 248.825 314.581 248.643C314.593 248.647 314.601 248.644 314.604 248.632C314.614 248.598 314.6 248.512 314.561 248.376C314.523 248.24 314.476 248.088 314.42 247.922C314.376 247.759 314.332 247.596 314.288 247.433C314.26 247.263 314.255 247.124 314.273 247.017C314.386 246.203 314.567 245.403 314.816 244.618C315.066 243.832 315.306 243.05 315.54 242.272C315.524 242.018 315.446 241.814 315.307 241.66C315.18 241.509 315.027 241.42 314.85 241.391C314.689 241.268 314.474 241.166 314.207 241.086ZM313.825 242.487C313.627 243.101 313.411 243.778 313.176 244.517C312.956 245.25 312.822 245.982 312.774 246.716C312.746 246.721 312.725 246.726 312.709 246.734C312.693 246.742 312.672 246.748 312.644 246.752C312.432 246.838 312.218 246.911 312.001 246.97C311.797 247.034 311.587 247.095 311.37 247.155C311.158 247.154 310.956 247.118 310.765 247.048C310.574 246.978 310.375 246.913 310.169 246.851C310.069 246.783 309.971 246.716 309.872 246.649C309.773 246.582 309.675 246.509 309.579 246.43C309.524 246.351 309.469 246.266 309.417 246.176C309.377 246.089 309.335 246.008 309.292 245.932C309.295 245.833 309.292 245.733 309.283 245.63C309.274 245.528 309.271 245.428 309.274 245.329C309.381 244.974 309.528 244.638 309.716 244.32C309.908 243.991 310.129 243.696 310.38 243.434C310.646 243.165 310.945 242.943 311.276 242.768C311.61 242.582 311.984 242.463 312.397 242.413C312.452 242.405 312.534 242.398 312.641 242.393C312.761 242.391 312.886 242.392 313.018 242.394C313.166 242.388 313.31 242.394 313.45 242.411C313.591 242.429 313.716 242.454 313.825 242.487Z" fill="black"/>
<path d="M332.285 238.147L302.917 229.346L302.387 231.11L331.952 239.969L332.006 239.986L332.007 239.983C332.949 240.218 333.663 240.316 334.14 240.276C334.671 240.248 334.967 240.134 335.028 239.933L335.029 239.932C335.093 239.717 334.89 239.444 334.418 239.115C334.031 238.813 333.401 238.518 332.534 238.228L332.536 238.222L332.292 238.148C332.29 238.148 332.288 238.148 332.285 238.147ZM299.887 228.478C299.185 228.327 298.628 228.262 298.238 228.295C297.707 228.323 297.411 228.437 297.351 228.638C297.286 228.853 297.49 229.125 297.961 229.454C298.274 229.698 298.752 229.937 299.378 230.173L299.887 228.478Z" fill="black"/>
<path d="M308.679 232.996L306.763 232.422C306.747 232.461 306.73 232.495 306.715 232.536L306.707 232.534L306.665 232.675C306.664 232.677 306.664 232.678 306.663 232.679L306.412 233.516L306.412 233.516L302.187 247.625L302.172 247.673L302.175 247.674C301.977 248.514 301.912 249.154 301.985 249.589C302.048 250.072 302.191 250.346 302.413 250.413C302.652 250.485 302.936 250.317 303.266 249.91C303.571 249.578 303.856 249.026 304.118 248.258L304.127 248.26L304.192 248.043C304.192 248.041 304.193 248.039 304.194 248.038L305.892 242.369L305.896 242.37L308.652 233.152L308.661 233.121L308.658 233.12C308.668 233.077 308.671 233.038 308.679 232.996Z" fill="black"/>
</g>
<g style="mix-blend-mode:darken">
<path d="M317.805 211.687C317.697 211.657 317.581 211.648 317.457 211.653C316.979 211.614 316.624 211.759 316.392 212.087C314.202 214.193 312.226 216.436 310.465 218.817C308.73 221.185 307.108 223.66 305.598 226.243C305.39 226.64 305.327 226.999 305.409 227.316C305.512 227.64 305.684 227.881 305.927 228.037C306.189 228.2 306.494 228.26 306.841 228.217C307.187 228.175 307.503 227.976 307.788 227.622C308.721 225.997 309.687 224.445 310.688 222.966L312.184 220.872C312.939 219.843 313.721 218.832 314.531 217.84C315.361 216.854 316.226 215.9 317.126 214.977C317.399 215.624 317.613 216.285 317.766 216.959C317.92 217.633 318.076 218.298 318.235 218.953C318.353 219.595 318.461 220.235 318.559 220.871C318.678 221.514 318.784 222.164 318.876 222.819L319.085 225.457C319.131 226.413 319.133 227.367 319.093 228.317C319.058 229.249 318.966 230.185 318.817 231.124C318.902 231.506 319.058 231.803 319.283 232.017C319.508 232.231 319.762 232.35 320.045 232.372C320.322 232.413 320.587 232.346 320.84 232.171C321.093 231.996 321.284 231.729 321.414 231.37C321.56 230.514 321.649 229.661 321.682 228.812C321.74 227.95 321.755 227.087 321.726 226.22L321.539 223.619C321.488 223.123 321.427 222.623 321.355 222.12C321.304 221.623 321.233 221.12 321.141 220.611C320.924 219.185 320.64 217.76 320.289 216.335C319.938 214.911 319.377 213.56 318.604 212.281L318.573 212.272C318.579 212.253 318.572 212.24 318.551 212.234C318.449 212.056 318.301 211.917 318.109 211.818C318.016 211.758 317.914 211.714 317.805 211.687Z" fill="black"/>
<path d="M317.805 211.687C317.697 211.657 317.581 211.648 317.457 211.653C316.979 211.614 316.624 211.759 316.392 212.087C314.202 214.193 312.226 216.436 310.465 218.817C308.73 221.185 307.108 223.66 305.598 226.243C305.39 226.64 305.327 226.999 305.409 227.316C305.512 227.64 305.684 227.881 305.927 228.037C306.189 228.2 306.494 228.26 306.841 228.217C307.187 228.175 307.503 227.976 307.788 227.622C308.721 225.997 309.687 224.445 310.688 222.966L312.184 220.872C312.939 219.843 313.721 218.832 314.531 217.84C315.361 216.854 316.226 215.9 317.126 214.977C317.399 215.624 317.613 216.285 317.766 216.959C317.92 217.633 318.076 218.298 318.235 218.953C318.353 219.595 318.461 220.235 318.559 220.871C318.678 221.514 318.784 222.164 318.876 222.819L319.085 225.457C319.131 226.413 319.133 227.367 319.093 228.317C319.058 229.249 318.966 230.185 318.817 231.124C318.902 231.506 319.058 231.803 319.283 232.017C319.508 232.231 319.762 232.35 320.045 232.372C320.322 232.413 320.587 232.346 320.84 232.171C321.093 231.996 321.284 231.729 321.414 231.37C321.56 230.514 321.649 229.661 321.682 228.812C321.74 227.95 321.755 227.087 321.726 226.22L321.539 223.619C321.488 223.123 321.427 222.623 321.355 222.12C321.304 221.623 321.233 221.12 321.141 220.611C320.924 219.185 320.64 217.76 320.289 216.335C319.938 214.911 319.377 213.56 318.604 212.281L318.573 212.272C318.579 212.253 318.572 212.24 318.551 212.234C318.449 212.056 318.301 211.917 318.109 211.818C318.016 211.758 317.914 211.714 317.805 211.687Z" stroke="url(#paint2_linear_2398_1225)" style="mix-blend-mode:darken"/>
</g>
<g style="mix-blend-mode:darken">
<path d="M334.923 216.343C334.058 216.083 333.162 215.931 332.232 215.884C331.303 215.838 330.398 215.861 329.516 215.956C329.445 215.892 329.328 215.835 329.163 215.786C328.875 215.699 328.588 215.719 328.303 215.845C328.025 215.951 327.775 216.183 327.556 216.539L325.216 224.329L324.539 226.692L322.837 232.361C322.77 232.806 322.832 233.162 323.021 233.43C323.204 233.718 323.439 233.905 323.728 233.991C324.037 234.084 324.35 234.051 324.667 233.893C324.999 233.76 325.242 233.474 325.396 233.034C325.596 232.292 325.837 231.456 326.116 230.525L326.867 228.026C327.303 228.22 327.742 228.405 328.183 228.579C328.624 228.754 329.082 228.913 329.556 229.055L330.266 229.268C330.54 229.328 330.803 229.388 331.056 229.442C332.362 229.729 333.597 229.73 334.76 229.446C335.929 229.142 337.002 228.598 337.978 227.814C338.902 227.056 339.532 226.115 339.87 224.991C340.045 224.41 340.127 223.801 340.116 223.164C340.126 222.533 340.052 221.919 339.894 221.322C339.743 220.707 339.504 220.117 339.179 219.555C338.854 218.992 338.454 218.492 337.98 218.054C337.546 217.628 337.066 217.283 336.539 217.019C336.039 216.742 335.5 216.516 334.923 216.343ZM334.185 218.689C334.947 218.918 335.601 219.283 336.146 219.785C336.771 220.395 337.17 221.086 337.343 221.856C337.542 222.613 337.531 223.36 337.31 224.096C337.159 224.6 336.905 225.073 336.547 225.515C336.19 225.957 335.741 226.329 335.201 226.632C334.614 226.941 333.993 227.103 333.337 227.118C332.708 227.119 332.08 227.078 331.454 226.995C331.004 226.924 330.563 226.823 330.13 226.693C329.677 226.557 329.24 226.404 328.819 226.236C328.404 226.048 327.995 225.84 327.592 225.614L329.74 218.464C330.418 218.372 331.147 218.337 331.926 218.36C332.711 218.363 333.464 218.473 334.185 218.69L334.185 218.689Z" fill="black"/>
<path d="M334.923 216.343C334.058 216.083 333.162 215.931 332.232 215.884C331.303 215.838 330.398 215.861 329.516 215.956C329.445 215.892 329.328 215.835 329.163 215.786C328.875 215.699 328.588 215.719 328.303 215.845C328.025 215.951 327.775 216.183 327.556 216.539L325.216 224.329L324.539 226.692L322.837 232.361C322.77 232.806 322.832 233.162 323.021 233.43C323.204 233.718 323.439 233.905 323.728 233.991C324.037 234.084 324.35 234.051 324.667 233.893C324.999 233.76 325.242 233.474 325.396 233.034C325.596 232.292 325.837 231.456 326.116 230.525L326.867 228.026C327.303 228.22 327.742 228.405 328.183 228.579C328.624 228.754 329.082 228.913 329.556 229.055L330.266 229.268C330.54 229.328 330.803 229.388 331.056 229.442C332.362 229.729 333.597 229.73 334.76 229.446C335.929 229.142 337.002 228.598 337.978 227.814C338.902 227.056 339.532 226.115 339.87 224.991C340.045 224.41 340.127 223.801 340.116 223.164C340.126 222.533 340.052 221.919 339.894 221.322C339.743 220.707 339.504 220.117 339.179 219.555C338.854 218.992 338.454 218.492 337.98 218.054C337.546 217.628 337.066 217.283 336.539 217.019C336.039 216.742 335.5 216.516 334.923 216.343ZM334.185 218.689C334.947 218.918 335.601 219.283 336.146 219.785C336.771 220.395 337.17 221.086 337.343 221.856C337.542 222.613 337.531 223.36 337.31 224.096C337.159 224.6 336.905 225.073 336.547 225.515C336.19 225.957 335.741 226.329 335.201 226.632C334.614 226.941 333.993 227.103 333.337 227.118C332.708 227.119 332.08 227.078 331.454 226.995C331.004 226.924 330.563 226.823 330.13 226.693C329.677 226.557 329.24 226.404 328.819 226.236C328.404 226.048 327.995 225.84 327.592 225.614L329.74 218.464C330.418 218.372 331.147 218.337 331.926 218.36C332.711 218.363 333.464 218.473 334.185 218.69L334.185 218.689Z" stroke="url(#paint3_linear_2398_1225)" style="mix-blend-mode:darken"/>
</g>
<g style="mix-blend-mode:darken">
<path d="M321.695 184.761L320.873 186.259L320.539 187.507L319.786 187.623L320.243 188.674L317.945 188.04L312.478 188.943L315.342 191.136L314.546 193.789L313.924 193.741L313.839 193.716L313.834 193.734L304.901 193.045L309.341 195.76L308.77 197.659L285.933 196.715L287.878 197.852L343.383 214.358L344.95 214.443L325.373 202.646L325.943 200.747L331.144 200.928L323.31 196.581L323.316 196.563L323.231 196.537L322.686 196.234L323.483 193.582L327.082 193.33L323.018 189.564L320.75 188.826L321.711 188.201L321.147 187.689L321.556 186.464L321.695 184.761Z" stroke="#010A00" stroke-width="1.00001" stroke-linecap="round" stroke-linejoin="bevel"/>
</g>
<g style="mix-blend-mode:darken">
<path d="M309.565 207.141L306.566 206.243L306.523 206.389C306.522 206.392 306.521 206.393 306.52 206.396L295.132 244.441L295.112 244.506L295.117 244.508C294.86 245.64 294.795 246.508 294.929 247.104C295.049 247.765 295.28 248.146 295.621 248.249C295.987 248.358 296.41 248.145 296.89 247.608C297.337 247.172 297.739 246.434 298.099 245.403L298.11 245.407L298.197 245.114C298.198 245.112 298.199 245.11 298.199 245.108L309.565 207.141Z" fill="black"/>
<path d="M309.565 207.141L306.566 206.243L306.523 206.389C306.522 206.392 306.521 206.393 306.52 206.396L295.132 244.441L295.112 244.506L295.117 244.508C294.86 245.64 294.795 246.508 294.929 247.104C295.049 247.765 295.28 248.146 295.621 248.249C295.987 248.358 296.41 248.145 296.89 247.608C297.337 247.172 297.739 246.434 298.099 245.403L298.11 245.407L298.197 245.114C298.198 245.112 298.199 245.11 298.199 245.108L309.565 207.141Z" stroke="url(#paint4_linear_2398_1225)" style="mix-blend-mode:darken"/>
</g>
<g style="mix-blend-mode:darken">
<path d="M342.681 215.635C342.776 215.317 342.483 214.917 341.801 214.435C341.242 213.993 340.33 213.561 339.074 213.141L339.077 213.131L338.722 213.025C338.72 213.024 338.718 213.023 338.714 213.022L292.547 199.188L292.469 199.165L292.467 199.169C291.101 198.83 290.066 198.69 289.372 198.753C288.601 198.799 288.171 198.97 288.082 199.266C287.986 199.584 288.28 199.984 288.961 200.466C289.521 200.908 290.433 201.339 291.689 201.76L291.686 201.77L292.04 201.876C292.044 201.877 292.045 201.878 292.049 201.879L338.216 215.713L338.294 215.736L338.295 215.732C339.662 216.071 340.697 216.211 341.391 216.148C342.162 216.102 342.592 215.931 342.681 215.635Z" fill="black"/>
<path d="M342.681 215.635C342.776 215.317 342.483 214.917 341.801 214.435C341.242 213.993 340.33 213.561 339.074 213.141L339.077 213.131L338.722 213.025C338.72 213.024 338.718 213.023 338.714 213.022L292.547 199.188L292.469 199.165L292.467 199.169C291.101 198.83 290.066 198.69 289.372 198.753C288.601 198.799 288.171 198.97 288.082 199.266C287.986 199.584 288.28 199.984 288.961 200.466C289.521 200.908 290.433 201.339 291.689 201.76L291.686 201.77L292.04 201.876C292.044 201.877 292.045 201.878 292.049 201.879L338.216 215.713L338.294 215.736L338.295 215.732C339.662 216.071 340.697 216.211 341.391 216.148C342.162 216.102 342.592 215.931 342.681 215.635Z" stroke="url(#paint5_linear_2398_1225)" style="mix-blend-mode:darken"/>
</g>
</g>
<defs>
<filter id="filter0_f_2398_1225" x="24.1498" y="0.422592" width="589.293" height="477.526" filterUnits="userSpaceOnUse" color-interpolation-filters="sRGB">
<feFlood flood-opacity="0" result="BackgroundImageFix"/>
<feBlend mode="normal" in="SourceGraphic" in2="BackgroundImageFix" result="shape"/>
<feGaussianBlur stdDeviation="42.2244" result="effect1_foregroundBlur_2398_1225"/>
</filter>
<filter id="filter1_d_2398_1225" x="0.974998" y="23.5757" width="636.793" height="529.287" filterUnits="userSpaceOnUse" color-interpolation-filters="sRGB">
<feFlood flood-opacity="0" result="BackgroundImageFix"/>
<feColorMatrix in="SourceAlpha" type="matrix" values="0 0 0 0 0 0 0 0 0 0 0 0 0 0 0 0 0 0 127 0" result="hardAlpha"/>
<feOffset dy="51.2051"/>
<feGaussianBlur stdDeviation="36.9815"/>
<feComposite in2="hardAlpha" operator="out"/>
<feColorMatrix type="matrix" values="0 0 0 0 0.1375 0 0 0 0 0.155242 0 0 0 0 0.4125 0 0 0 0.08 0"/>
<feBlend mode="normal" in2="BackgroundImageFix" result="effect1_dropShadow_2398_1225"/>
<feBlend mode="normal" in="SourceGraphic" in2="effect1_dropShadow_2398_1225" result="shape"/>
</filter>
<filter id="filter2_f_2398_1225" x="-319.028" y="-400.061" width="950.71" height="950.71" filterUnits="userSpaceOnUse" color-interpolation-filters="sRGB">
<feFlood flood-opacity="0" result="BackgroundImageFix"/>
<feBlend mode="normal" in="SourceGraphic" in2="BackgroundImageFix" result="shape"/>
<feGaussianBlur stdDeviation="183.375" result="effect1_foregroundBlur_2398_1225"/>
</filter>
<filter id="filter3_f_2398_1225" x="4.28238" y="-67.378" width="950.71" height="950.71" filterUnits="userSpaceOnUse" color-interpolation-filters="sRGB">
<feFlood flood-opacity="0" result="BackgroundImageFix"/>
<feBlend mode="normal" in="SourceGraphic" in2="BackgroundImageFix" result="shape"/>
<feGaussianBlur stdDeviation="183.375" result="effect1_foregroundBlur_2398_1225"/>
</filter>
<filter id="filter4_d_2398_1225" x="270.501" y="175.897" width="86.7021" height="91.2592" filterUnits="userSpaceOnUse" color-interpolation-filters="sRGB">
<feFlood flood-opacity="0" result="BackgroundImageFix"/>
<feColorMatrix in="SourceAlpha" type="matrix" values="0 0 0 0 0 0 0 0 0 0 0 0 0 0 0 0 0 0 127 0" result="hardAlpha"/>
<feOffset dx="2" dy="4"/>
<feGaussianBlur stdDeviation="2"/>
<feComposite in2="hardAlpha" operator="out"/>
<feColorMatrix type="matrix" values="0 0 0 0 0 0 0 0 0 0 0 0 0 0 0 0 0 0 0.3 0"/>
<feBlend mode="normal" in2="BackgroundImageFix" result="effect1_dropShadow_2398_1225"/>
<feBlend mode="normal" in="SourceGraphic" in2="effect1_dropShadow_2398_1225" result="shape"/>
</filter>
<linearGradient id="paint0_linear_2398_1225" x1="166.747" y1="189.51" x2="542.423" y2="189.51" gradientUnits="userSpaceOnUse">
<stop stop-color="#44BCFF"/>
<stop offset="0.234375" stop-color="#44B0FF"/>
<stop offset="0.489583" stop-color="#FF44EC"/>
<stop offset="0.739583" stop-color="#FF44EC"/>
<stop offset="1" stop-color="#FF675E"/>
</linearGradient>
<linearGradient id="paint1_linear_2398_1225" x1="447.366" y1="318.166" x2="134.905" y2="21.3881" gradientUnits="userSpaceOnUse">
<stop offset="0.507336" stop-color="white"/>
<stop offset="1" stop-color="white" stop-opacity="0"/>
</linearGradient>
<linearGradient id="paint2_linear_2398_1225" x1="281.193" y1="219.397" x2="336.395" y2="235.979" gradientUnits="userSpaceOnUse">
<stop stop-color="white"/>
<stop offset="1" stop-color="white" stop-opacity="0"/>
</linearGradient>
<linearGradient id="paint3_linear_2398_1225" x1="281.659" y1="219.537" x2="336.861" y2="236.12" gradientUnits="userSpaceOnUse">
<stop stop-color="white"/>
<stop offset="1" stop-color="white" stop-opacity="0"/>
</linearGradient>
<linearGradient id="paint4_linear_2398_1225" x1="280.716" y1="219.299" x2="335.918" y2="235.881" gradientUnits="userSpaceOnUse">
<stop stop-color="white"/>
<stop offset="1" stop-color="white" stop-opacity="0"/>
</linearGradient>
<linearGradient id="paint5_linear_2398_1225" x1="281.517" y1="219.988" x2="337.678" y2="236.858" gradientUnits="userSpaceOnUse">
<stop stop-color="white"/>
<stop offset="1" stop-color="white" stop-opacity="0"/>
</linearGradient>
</defs>
</svg>
